HIERARCHY
ROOT Hips
{
	OFFSET 0.000000 0.000000 0.000000
	CHANNELS 6 Xposition Yposition Zposition Zrotation Yrotation Xrotation 
	JOINT LHipJoint
	{
		OFFSET 0.000000 0.000000 0.000000
		CHANNELS 3 Zrotation Yrotation Xrotation
		JOINT LeftUpLeg
		{
			OFFSET 1.363060 -1.794630 0.839290
			CHANNELS 3 Zrotation Yrotation Xrotation
			JOINT LeftLeg
			{
				OFFSET 2.448110 -6.726130 0.000000
				CHANNELS 3 Zrotation Yrotation Xrotation
				JOINT LeftFoot
				{
					OFFSET 2.562200 -7.039590 0.000000
					CHANNELS 3 Zrotation Yrotation Xrotation
					JOINT LeftToeBase
					{
						OFFSET 0.157640 -0.433110 2.322550
						CHANNELS 3 Zrotation Yrotation Xrotation
						End Site
						{
							OFFSET 0.000000 0.000000 0.000000
						}
					}
				}
			}
		}
	}
	JOINT RHipJoint
	{
		OFFSET 0.000000 0.000000 0.000000
		CHANNELS 3 Zrotation Yrotation Xrotation
		JOINT RightUpLeg
		{
			OFFSET -1.305520 -1.794630 0.839290
			CHANNELS 3 Zrotation Yrotation Xrotation
			JOINT RightLeg
			{
				OFFSET -2.542530 -6.985550 0.000000
				CHANNELS 3 Zrotation Yrotation Xrotation
				JOINT RightFoot
				{
					OFFSET -2.568260 -7.056230 0.000000
					CHANNELS 3 Zrotation Yrotation Xrotation
					JOINT RightToeBase
					{
						OFFSET -0.164730 -0.452590 2.363150
						CHANNELS 3 Zrotation Yrotation Xrotation
						End Site
						{
							OFFSET 0.000000 0.000000 0.000000
						}
					}
				}
			}
		}
	}
	JOINT LowerBack
	{
		OFFSET 0.000000 0.000000 0.000000
		CHANNELS 3 Zrotation Yrotation Xrotation
		JOINT Spine
		{
			OFFSET 0.028270 2.035590 -0.193380
			CHANNELS 3 Zrotation Yrotation Xrotation
			JOINT Spine1
			{
				OFFSET 0.056720 2.048850 -0.042750
				CHANNELS 3 Zrotation Yrotation Xrotation
				JOINT Neck
				{
					OFFSET 0.000000 0.000000 0.000000
					CHANNELS 3 Zrotation Yrotation Xrotation
					JOINT Neck1
					{
						OFFSET -0.054170 1.746240 0.172020
						CHANNELS 3 Zrotation Yrotation Xrotation
						JOINT Head
						{
							OFFSET 0.104070 1.761360 -0.123970
							CHANNELS 3 Zrotation Yrotation Xrotation
							End Site
							{
								OFFSET 0.000000 0.000000 0.000000
							}
						}
					}
				}
				JOINT LeftShoulder
				{
					OFFSET 0.000000 0.000000 0.000000
					CHANNELS 3 Zrotation Yrotation Xrotation
					JOINT LeftArm
					{
						OFFSET 3.362410 1.200890 -0.311210
						CHANNELS 3 Zrotation Yrotation Xrotation
						JOINT LeftForeArm
						{
							OFFSET 4.983000 -0.000000 -0.000000
							CHANNELS 3 Zrotation Yrotation Xrotation
							JOINT LeftHand
							{
								OFFSET 3.483560 -0.000000 -0.000000
								CHANNELS 3 Zrotation Yrotation Xrotation
								JOINT LeftFingerBase
								{
									OFFSET 0.000000 0.000000 0.000000
									CHANNELS 3 Zrotation Yrotation Xrotation
									JOINT LeftHandIndex1
									{
										OFFSET 0.715260 -0.000000 -0.000000
										CHANNELS 3 Zrotation Yrotation Xrotation
										End Site
										{
											OFFSET 0.000000 0.000000 0.000000
										}
									}
								}
								JOINT LThumb
								{
									OFFSET 0.000000 0.000000 0.000000
									CHANNELS 3 Zrotation Yrotation Xrotation
									End Site
									{
										OFFSET 0.000000 0.000000 0.000000
									}
								}
							}
						}
					}
				}
				JOINT RightShoulder
				{
					OFFSET 0.000000 0.000000 0.000000
					CHANNELS 3 Zrotation Yrotation Xrotation
					JOINT RightArm
					{
						OFFSET -3.136600 1.374050 -0.404650
						CHANNELS 3 Zrotation Yrotation Xrotation
						JOINT RightForeArm
						{
							OFFSET -5.241900 -0.000000 -0.000000
							CHANNELS 3 Zrotation Yrotation Xrotation
							JOINT RightHand
							{
								OFFSET -3.444170 -0.000000 -0.000000
								CHANNELS 3 Zrotation Yrotation Xrotation
								JOINT RightFingerBase
								{
									OFFSET 0.000000 0.000000 0.000000
									CHANNELS 3 Zrotation Yrotation Xrotation
									JOINT RightHandIndex1
									{
										OFFSET -0.622530 -0.000000 -0.000000
										CHANNELS 3 Zrotation Yrotation Xrotation
										End Site
										{
											OFFSET 0.000000 0.000000 0.000000
										}
									}
								}
								JOINT RThumb
								{
									OFFSET 0.000000 0.000000 0.000000
									CHANNELS 3 Zrotation Yrotation Xrotation
									End Site
									{
										OFFSET 0.000000 0.000000 0.000000
									}
								}
							}
						}
					}
				}
			}
		}
	}
}
MOTION
Frames: 10
Frame Time: 0.008333
-0.330673 17.847505 -30.446866 -2.413813 37.493065 1.369969 -5.562594 -1.874102 0.266935 -6.467017 -13.518954 -8.890455 0.209524 8.583000 23.342933 2.639269 -9.566278 5.792263 0.213800 -2.976600 -8.213600 4.161927 1.694136 0.398918 20.661462 -12.215141 -8.441159 -1.109845 -8.869158 22.958428 9.160879 -36.638140 -24.425118 -0.046400 -1.389800 3.822000 6.015501 6.420549 2.752313 2.145095 8.526437 -0.244142 -1.418258 4.387276 -0.364859 16.881147 22.445805 3.351703 -9.519410 31.231372 6.801565 -4.635200 15.475900 9.110000 3.921020 -1.959731 0.318716 -91.839669 -6.599151 0.084927 10.675424 -17.584136 -1.591005 0.710465 -0.290822 -5.811376 22.720182 -19.803471 -7.702000 -7.125000 0.000000 0.000000 -4.042100 9.098700 3.360600 -2.782705 1.001902 0.576067 76.484299 -11.584523 -18.140194 -14.044459 22.192653 -2.875386 -0.137126 -0.532147 -10.444935 -25.505064 5.048594 -2.643900 7.125000 0.000000 0.000000 1.058700 -23.778000 0.542000 
-0.321433 17.846611 -30.446468 -2.486644 37.306143 1.338128 -5.553428 -1.876762 0.274791 -6.440948 -13.347699 -8.939860 0.216123 8.593402 23.369589 2.635393 -9.530456 5.742677 0.270200 -3.343700 -9.237000 4.162482 1.693373 0.399575 20.675714 -12.173017 -8.381559 -1.102829 -8.853992 22.910078 9.140020 -36.558705 -24.302790 -0.047100 -1.400000 3.850200 6.113972 6.595562 2.678821 2.023936 8.767156 -0.546543 -1.639198 4.501255 -0.633950 17.667617 22.139993 4.156662 -9.705058 30.866879 6.604221 -4.941800 15.371900 9.003300 3.921245 -1.981010 0.337992 -91.518579 -5.979051 1.024706 10.748898 -17.675994 -1.610528 0.711739 -0.285210 -6.190604 22.603955 -19.920798 -7.702100 -7.125000 0.000000 0.000000 -4.126300 8.990700 3.439900 -2.838808 0.962795 0.537833 76.802611 -9.813210 -23.603939 -12.626159 20.188307 -2.394048 -0.190443 -0.478124 -5.093634 -25.565820 5.715609 -2.944600 7.125000 0.000000 0.000000 1.031800 -23.085200 0.544700 
-0.313583 17.846611 -30.448058 -2.492767 37.098494 1.309301 -5.550430 -1.870125 0.288902 -6.474820 -13.240139 -8.903940 0.215204 8.594596 23.361178 2.617786 -9.420833 5.708973 0.272800 -3.359600 -9.281500 4.162499 1.693044 0.400104 20.620781 -12.126535 -8.315282 -1.104289 -8.853154 22.902557 9.139346 -36.507406 -24.101923 -0.043200 -1.341200 3.688200 6.357158 6.582621 3.000002 1.810802 8.800780 -0.856416 -2.090471 4.501314 -1.088020 17.636894 22.128206 4.444084 -9.398211 30.824639 6.605408 -4.892700 15.380300 8.892000 3.923687 -1.982321 0.351945 -91.076254 -5.418682 1.459947 10.892907 -17.873389 -1.649830 0.716190 -0.264166 -6.796792 22.632401 -19.692872 -7.631900 -7.125000 0.000000 0.000000 -4.092800 9.212800 3.393600 -2.876340 0.957459 0.510239 77.356410 -8.674632 -28.179180 -11.817195 18.997847 -2.136809 -0.230940 -0.429694 -0.407185 -25.761122 6.484064 -3.318500 7.125000 0.000000 0.000000 0.913900 -22.261000 0.499600 
-0.307125 17.847207 -30.446170 -2.447551 36.936843 1.405598 -5.552295 -1.873809 0.289135 -6.509896 -13.174183 -8.937153 0.214433 8.591864 23.350081 2.605966 -9.346841 5.654017 0.267600 -3.327900 -9.193100 4.163499 1.692671 0.400395 20.555416 -12.087493 -8.347643 -1.103061 -8.850193 22.892058 9.122976 -36.435462 -23.986999 -0.042400 -1.329000 3.654600 6.255400 6.524878 2.801818 1.863147 8.698563 -0.789802 -1.941763 4.455504 -0.930950 17.417295 22.197273 4.227904 -9.474167 30.907526 6.569758 -4.853700 15.394400 8.905800 3.925891 -1.976618 0.346374 -91.180645 -5.643483 1.065609 10.844465 -17.809606 -1.638693 0.724662 -0.265946 -6.564047 23.045726 -19.626246 -7.760900 -7.125000 0.000000 0.000000 -3.826500 9.221300 3.171100 -2.868740 0.955403 0.513675 76.934441 -8.748973 -28.144478 -11.657817 18.759440 -2.090087 -0.235755 -0.427585 -0.562163 -26.016467 6.600495 -3.410600 7.125000 0.000000 0.000000 0.735800 -22.117600 0.404600 
-0.299474 17.847107 -30.445872 -2.404972 36.769650 1.448339 -5.554974 -1.871468 0.293486 -6.571587 -13.145395 -8.902583 0.212268 8.589671 23.334969 2.580700 -9.198683 5.601333 0.261900 -3.292500 -9.094100 4.164014 1.690527 0.401438 20.471653 -12.066701 -8.335833 -1.104457 -8.851952 22.894048 9.105161 -36.356143 -23.849134 -0.040900 -1.305500 3.589900 6.231393 6.521974 2.743010 1.832604 8.691037 -0.857867 -1.963259 4.449794 -0.976636 17.413951 22.173768 4.300565 -9.480703 30.876600 6.532157 -4.872600 15.383500 8.875300 3.926935 -1.976737 0.349179 -91.103945 -5.549687 1.109179 10.869497 -17.844258 -1.646089 0.727767 -0.261606 -6.635539 23.160477 -19.560317 -7.779500 -7.125000 0.000000 0.000000 -3.749100 9.270600 3.103000 -2.879777 0.946593 0.503264 76.798877 -8.292073 -30.323623 -11.188783 18.048634 -1.948913 -0.256223 -0.401420 1.624670 -26.269986 7.005184 -3.635700 7.125000 0.000000 0.000000 0.570200 -21.670600 0.319300 
-0.292320 17.846909 -30.445375 -2.365691 36.603144 1.479262 -5.558244 -1.867242 0.298071 -6.631342 -13.148130 -8.841362 0.209327 8.585997 23.314726 2.549188 -9.015287 5.548936 0.248200 -3.205900 -8.852600 4.164449 1.687517 0.402271 20.393741 -12.028943 -8.308131 -1.105147 -8.853764 22.895333 9.089186 -36.287620 -23.736126 -0.039600 -1.285200 3.533900 6.179530 6.514296 2.664649 1.829221 8.673263 -0.884804 -1.931549 4.440581 -0.973730 17.347217 22.165645 4.280157 -9.482471 30.861798 6.519958 -4.869100 15.373000 8.860800 3.928020 -1.974903 0.349592 -91.070399 -5.535165 1.084824 10.885813 -17.867527 -1.650579 0.728661 -0.259140 -6.672526 23.201126 -19.513581 -7.777500 -7.125000 0.000000 0.000000 -3.719800 9.311900 3.075600 -2.884339 0.941677 0.497682 76.579677 -8.059103 -31.880854 -10.828576 17.495429 -1.844378 -0.272540 -0.380580 3.285177 -26.557414 7.366621 -3.851500 7.125000 0.000000 0.000000 0.381100 -21.262600 0.217000 
-0.285861 17.846511 -30.444680 -2.347393 36.434075 1.490892 -5.560661 -1.862008 0.302112 -6.673621 -13.173298 -8.770164 0.208652 8.586508 23.306299 2.513182 -8.807005 5.486641 0.235500 -3.123500 -8.622800 4.164858 1.683892 0.403069 20.339274 -11.966451 -8.261510 -1.103929 -8.852671 22.887341 9.076569 -36.235031 -23.648916 -0.038800 -1.270900 3.494500 6.117104 6.509172 2.566470 1.850240 8.655913 -0.886348 -1.861119 4.433007 -0.936586 17.272240 22.158323 4.227465 -9.503705 30.847920 6.506727 -4.866800 15.360000 8.853200 3.929049 -1.972942 0.348734 -91.064521 -5.572600 1.019525 10.892541 -17.876409 -1.651744 0.726780 -0.259300 -6.681393 23.134084 -19.513679 -7.752700 -7.125000 0.000000 0.000000 -3.761900 9.322000 3.109800 -2.885639 0.937475 0.494708 76.302001 -7.940264 -33.088167 -10.518947 17.016022 -1.757502 -0.286956 -0.362366 4.744132 -26.887998 7.679929 -4.056700 7.125000 0.000000 0.000000 0.160900 -20.899900 0.092900 
-0.279900 17.845915 -30.443786 -2.356786 36.260181 1.473953 -5.560539 -1.855838 0.307991 -6.692105 -13.186484 -8.697232 0.210180 8.590540 23.308168 2.479173 -8.609407 5.420084 0.226000 -3.059800 -8.445200 4.165017 1.680201 0.403584 20.313258 -11.879922 -8.187963 -1.100517 -8.847773 22.867817 9.068685 -36.200779 -23.582610 -0.038100 -1.259900 3.464300 6.089993 6.505863 2.516881 1.861228 8.647483 -0.903485 -1.828133 4.428602 -0.936941 17.212808 22.151161 4.175978 -9.499758 30.828520 6.494285 -4.859600 15.345600 8.842800 3.930154 -1.971422 0.347791 -91.025085 -5.612044 0.907497 10.889418 -17.868215 -1.649566 0.723233 -0.261026 -6.658919 22.996992 -19.538613 -7.710900 -7.125000 0.000000 0.000000 -3.850200 9.317400 3.183500 -2.887049 0.935252 0.493013 76.062817 -7.891662 -34.200422 -10.237078 16.576958 -1.680617 -0.300968 -0.344033 6.286099 -27.234046 7.980818 -4.263300 7.125000 0.000000 0.000000 -0.069100 -20.546700 -0.040500 
-0.274634 17.845319 -30.442593 -2.399098 36.083109 1.437011 -5.557402 -1.850249 0.315126 -6.676927 -13.174040 -8.642777 0.213755 8.597313 23.319636 2.450998 -8.443030 5.361996 0.220200 -3.020800 -8.336700 4.165146 1.677105 0.403644 20.323321 -11.767658 -8.101233 -1.094910 -8.839099 22.836249 9.067216 -36.187272 -23.532558 -0.037600 -1.252000 3.442500 6.117774 6.505743 2.517758 1.850256 8.650319 -0.946983 -1.858512 4.428627 -0.982697 17.187869 22.143740 4.151360 -9.483231 30.801389 6.455355 -4.857700 15.329900 8.820000 3.930713 -1.972564 0.347856 -90.925928 -5.632770 0.807093 10.885082 -17.856331 -1.647065 0.720855 -0.261155 -6.642221 22.904311 -19.522777 -7.670600 -7.125000 0.000000 0.000000 -3.907500 9.347800 3.228600 -2.889368 0.934589 0.492654 75.917686 -7.938710 -35.180749 -10.010960 16.221314 -1.620537 -0.313646 -0.326868 7.835164 -27.572368 8.246567 -4.456100 7.125000 0.000000 0.000000 -0.294100 -20.229400 -0.174300 
-0.269864 17.844822 -30.441401 -2.464763 35.905593 1.389191 -5.551428 -1.846032 0.323530 -6.635464 -13.121990 -8.613195 0.218846 8.605727 23.337878 2.432409 -8.327384 5.302165 0.221700 -3.030700 -8.364100 4.165097 1.674743 0.403243 20.359168 -11.645945 -8.010699 -1.087752 -8.827021 22.795221 9.068363 -36.182801 -23.488967 -0.037300 -1.246100 3.426100 6.178587 6.505151 2.548696 1.829769 8.656702 -1.005104 -1.922370 4.429813 -1.055155 17.196987 22.135784 4.149573 -9.475386 30.771888 6.394362 -4.865200 15.314600 8.792000 3.930772 -1.975443 0.348466 -90.794161 -5.650587 0.709006 10.878633 -17.840724 -1.644061 0.719542 -0.260289 -6.600618 22.863150 -19.469572 -7.635700 -7.125000 0.000000 0.000000 -3.929300 9.408700 3.241900 -2.891857 0.934382 0.493375 75.813172 -8.044802 -35.997988 -9.828038 15.931436 -1.572867 -0.324700 -0.311009 9.294923 -27.867161 8.496597 -4.636800 7.125000 0.000000 0.000000 -0.487500 -19.930600 -0.292100 
